<svg width="68" height="68" viewBox="0 0 68 68" fill="none" xmlns="http://www.w3.org/2000/svg">
<circle cx="34" cy="34" r="34" fill="#DC4D4F"/>
<path transform="translate(9, 8)" d="M24.9999 5C26.1483 5 27.203 5.63281 27.7499 6.64062L44.6249 37.8906C45.1483 38.8594 45.1249 40.0312 44.5624 40.9766C43.9999 41.9219 42.9765 42.5 41.8749 42.5H8.12491C7.02334 42.5 5.9999 41.9219 5.4374 40.9766C4.8749 40.0312 4.85147 38.8594 5.37491 37.8906L22.2499 6.64062C22.7968 5.63281 23.8515 5 24.9999 5ZM24.9999 32.5C23.6171 32.5 22.4999 33.6172 22.4999 35C22.4999 36.3828 23.6171 37.5 24.9999 37.5C26.3827 37.5 27.4999 36.3828 27.4999 35C27.4999 33.6172 26.3827 32.5 24.9999 32.5ZM24.9999 17.5C23.578 17.5 22.4452 18.7109 22.5468 20.1328L23.1249 28.2578C23.1952 29.2344 24.0155 30 24.9921 30C25.9765 30 26.789 29.2422 26.8593 28.2578L27.4374 20.1328C27.539 18.7109 26.414 17.5 24.9843 17.5H24.9999Z" fill="#742424"/>
</svg>
